# xmcd
#
# Track frame offsets:
#	150
#	14318
#	33338
#	51820
#	62643
#	84092
#	116426
#	135143
#	153252
#	170319
#	181153
#	196437
#	210700
#	231281
#	252940
#	272232
#	301309
#
# Disc length: 4221 seconds
#
# Revision: 0
# Processed by: cddbd v1.4PL0 Copyright (c) Steve Scherf et al.
# Submitted via: dBpowerAMP V4.0
#
DISCID=d5107b11
DTITLE=Yoram Gaon - Haosef 3
DYEAR=1900
DGENRE=
TTITLE0=Lo nafsik lashir
TTITLE1=Karusel
TTITLE2=Stav
TTITLE3=Kol Hakavod
TTITLE4=Ahuvati yerushalaim
TTITLE5=Hasar montifiori
TTITLE6=Efo at ahuva
TTITLE7=Eretz zvi
TTITLE8=Hine hastav avar
TTITLE9=Balada al maayan veyam
TTITLE10=Bapardes leyad hashoket
TTITLE11=Magash hakesef
TTITLE12=Layla layla
TTITLE13=Besharaich yerushalaim
TTITLE14=Hine tamu yom krav veirbo
TTITLE15=Shir hayehida
TTITLE16=Meal pisgat har hazofim
EXTD=
EXTT0=
EXTT1=
EXTT2=
EXTT3=
EXTT4=
EXTT5=
EXTT6=
EXTT7=
EXTT8=
EXTT9=
EXTT10=
EXTT11=
EXTT12=
EXTT13=
EXTT14=
EXTT15=
EXTT16=
PLAYORDER=
